<?xml version="1.0" standalone="no"?>
<!DOCTYPE svg PUBLIC "-//W3C//DTD SVG 20010904//EN"
 "http://www.w3.org/TR/2001/REC-SVG-20010904/DTD/svg10.dtd">
<svg version="1.0" xmlns="http://www.w3.org/2000/svg"
 width="500.000000pt" height="500.000000pt" viewBox="0 0 500.000000 500.000000"
 preserveAspectRatio="xMidYMid meet">

<g transform="translate(0.000000,500.000000) scale(0.100000,-0.100000)"
fill="#000000" stroke="none">
<path d="M1620 2648 c0 -27 1 -28 55 -28 l55 0 0 -160 0 -160 35 0 35 0 0 160
0 160 55 0 c54 0 55 1 55 29 l0 29 -145 -1 -145 -1 0 -28z"/>
<path d="M3122 2663 c-75 -37 -85 -151 -18 -205 31 -25 108 -24 131 2 10 11
21 20 25 20 13 0 -7 -80 -25 -100 -24 -27 -79 -27 -98 0 -13 18 -18 19 -41 9
-32 -15 -32 -21 -3 -55 20 -23 34 -28 84 -32 56 -4 62 -2 96 27 20 18 41 49
48 69 19 55 16 170 -5 210 -34 66 -122 91 -194 55z m122 -65 c34 -48 4 -108
-53 -108 -53 0 -81 72 -44 112 23 26 78 24 97 -4z"/>
<path d="M2053 2583 c-34 -7 -81 -59 -89 -99 -23 -122 52 -202 169 -180 32 6
77 38 77 55 0 4 -11 13 -25 19 -16 7 -25 8 -25 2 0 -15 -51 -32 -76 -26 -30 8
-54 33 -54 56 0 17 9 20 93 22 l92 3 -1 38 c-3 87 -64 129 -161 110z m89 -66
c4 -6 8 -20 8 -29 0 -15 -9 -18 -60 -18 -67 0 -77 13 -39 51 16 16 28 20 52
15 17 -4 35 -12 39 -19z"/>
<path d="M2345 2583 c-29 -8 -65 -34 -65 -48 0 -24 25 -36 46 -21 32 22 69 27
90 11 29 -22 7 -47 -55 -61 -53 -12 -88 -36 -91 -64 -9 -64 20 -100 80 -100
27 0 47 7 60 20 l20 20 21 -21 c27 -27 73 -23 77 9 2 14 -2 22 -11 22 -21 0
-27 22 -27 106 0 42 -5 84 -10 94 -15 29 -84 45 -135 33z m85 -169 c0 -44 -17
-64 -55 -64 -28 0 -36 4 -41 24 -8 32 0 44 39 55 50 14 57 13 57 -15z"/>
<path d="M2690 2573 c-14 -9 -28 -22 -32 -27 -4 -6 -8 -1 -8 12 0 20 -4 23
-32 20 l-33 -3 -3 -137 -3 -138 36 0 35 0 0 93 c0 107 13 137 60 137 41 0 50
-23 50 -134 l0 -96 30 0 30 0 0 88 c0 103 13 136 55 140 45 6 55 -17 55 -130
l0 -98 30 0 30 0 0 119 c0 135 -9 157 -71 167 -29 5 -41 1 -69 -22 -22 -19
-35 -25 -38 -16 -5 16 -55 42 -79 42 -10 0 -30 -8 -43 -17z"/>
</g>
</svg>
