<?xml version="1.0" standalone="no"?>
<!DOCTYPE svg PUBLIC "-//W3C//DTD SVG 20010904//EN"
 "http://www.w3.org/TR/2001/REC-SVG-20010904/DTD/svg10.dtd">
<svg version="1.0" xmlns="http://www.w3.org/2000/svg"
 width="500.000000pt" height="500.000000pt" viewBox="0 0 500.000000 500.000000"
 preserveAspectRatio="xMidYMid meet">

<g transform="translate(0.000000,500.000000) scale(0.100000,-0.100000)"
fill="#000000" stroke="none">
<path d="M4420 3013 c-124 -14 -237 -88 -287 -191 -25 -52 -28 -67 -28 -167 0
-105 2 -114 33 -178 58 -118 163 -174 306 -165 101 7 171 48 215 126 25 45 31
-42 10 -148 -28 -139 -116 -213 -231 -196 -69 10 -130 59 -151 119 -3 10 -160
-58 -165 -72 -6 -18 39 -98 72 -130 17 -16 56 -42 86 -58 52 -26 63 -28 180
-28 121 0 127 1 191 32 111 55 183 150 220 289 17 64 21 109 22 234 0 87 -5
176 -11 202 -37 149 -100 237 -206 288 -51 25 -176 53 -211 48 -5 -1 -26 -3
-45 -5z m167 -199 c51 -39 67 -70 71 -143 7 -126 -53 -190 -178 -191 -110 0
-170 63 -170 178 0 86 33 143 100 171 41 17 146 8 177 -15z"/>
<path d="M30 2915 l0 -85 155 0 155 0 0 -450 0 -450 105 0 105 0 0 450 0 450
155 0 155 0 0 85 0 85 -415 0 -415 0 0 -85z"/>
<path d="M1235 2737 c-103 -35 -172 -90 -217 -175 -38 -70 -51 -145 -46 -264
4 -90 9 -114 35 -169 38 -81 91 -133 173 -173 62 -29 71 -31 185 -31 118 0
123 1 189 34 47 24 79 50 107 84 21 27 39 52 39 56 0 7 -127 91 -137 91 -5 0
-17 -13 -28 -29 -31 -48 -84 -72 -160 -72 -117 -1 -184 52 -201 159 l-7 42
261 0 c296 0 282 -4 282 82 0 120 -35 230 -91 287 -58 59 -128 84 -244 88 -65
2 -114 -2 -140 -10z m218 -161 c29 -19 52 -63 62 -118 l7 -38 -177 0 c-172 0
-176 1 -171 20 3 11 9 30 12 43 10 36 53 86 87 102 41 19 145 14 180 -9z"/>
<path d="M2060 2735 c-83 -26 -200 -100 -200 -127 0 -14 72 -118 82 -118 6 0
24 12 42 27 58 49 124 73 203 73 87 0 113 -19 113 -82 0 -32 -5 -41 -32 -58
-18 -11 -57 -25 -88 -31 -191 -39 -267 -73 -311 -137 -35 -52 -40 -169 -9
-235 41 -88 115 -127 237 -127 81 1 149 34 187 93 24 36 37 34 63 -12 12 -22
37 -45 57 -55 38 -18 131 -21 170 -6 28 10 32 36 20 112 -6 35 -9 37 -48 40
l-41 3 -5 235 c-5 209 -8 240 -26 280 -27 59 -81 105 -146 125 -64 19 -207 19
-268 0z m250 -463 c0 -147 -79 -229 -195 -202 -72 16 -103 89 -68 157 16 31
28 40 69 51 27 8 74 22 104 32 90 28 90 28 90 -38z"/>
<path d="M3065 2732 c-22 -10 -57 -38 -77 -60 -21 -23 -42 -42 -48 -42 -5 0
-10 25 -10 55 l0 55 -95 0 -95 0 0 -405 0 -405 100 0 100 0 0 248 c0 297 7
337 71 379 29 19 53 26 93 27 67 1 101 -21 115 -71 7 -22 11 -152 11 -310 l0
-273 100 0 100 0 1 258 c0 218 3 264 17 302 29 75 117 114 199 87 65 -21 68
-34 71 -359 l3 -288 97 0 97 0 -5 332 -5 333 -28 48 c-15 26 -46 59 -69 74
-34 23 -53 28 -126 31 -80 3 -92 1 -142 -25 -34 -17 -66 -44 -85 -70 -16 -23
-34 -42 -40 -42 -5 0 -23 21 -40 47 -41 64 -88 86 -190 90 -62 2 -89 -2 -120
-16z"/>
</g>
</svg>
